<?xml version="1.0" standalone="no"?>
<!DOCTYPE svg PUBLIC "-//W3C//DTD SVG 20010904//EN"
 "http://www.w3.org/TR/2001/REC-SVG-20010904/DTD/svg10.dtd">
<svg version="1.0" xmlns="http://www.w3.org/2000/svg"
 width="700.000000pt" height="700.000000pt" viewBox="0 0 700.000000 700.000000"
 preserveAspectRatio="xMidYMid meet">
<metadata>
Created by potrace 1.14, written by Peter Selinger 2001-2017
</metadata>
<g transform="translate(0.000000,700.000000) scale(0.100000,-0.100000)"
fill="#000000" stroke="none">
<path d="M1405 6836 c-25 -26 -26 -40 -5 -141 6 -27 12 -61 15 -75 3 -14 9
-47 15 -75 12 -60 19 -92 25 -125 2 -14 25 -126 50 -250 25 -124 48 -238 51
-253 2 -16 34 -171 69 -345 35 -174 63 -317 61 -319 -2 -2 -73 8 -157 23 -85
15 -174 30 -199 34 -25 4 -88 15 -140 24 -52 9 -108 19 -125 22 -16 3 -68 12
-115 20 -80 14 -462 81 -505 88 -11 2 -52 9 -91 16 -40 7 -83 10 -96 7 -34 -9
-55 -51 -42 -85 6 -15 228 -325 493 -689 265 -364 484 -668 486 -675 4 -9
-110 -45 -402 -128 -303 -85 -414 -121 -430 -137 -50 -49 -55 -44 412 -510
239 -240 435 -438 434 -442 0 -3 -162 -127 -361 -275 -198 -148 -365 -280
-370 -292 -8 -17 -7 -32 2 -53 10 -26 22 -34 79 -50 36 -11 226 -65 421 -121
195 -56 357 -104 359 -106 5 -5 -25 -67 -87 -179 -176 -321 -262 -484 -262
-498 0 -10 11 -29 25 -43 24 -24 30 -25 88 -19 34 3 69 8 77 10 8 2 40 6 70 9
66 7 123 14 170 21 19 3 51 7 70 9 19 2 60 7 90 10 30 4 66 9 80 11 14 3 50 7
80 10 30 3 66 8 80 10 14 2 50 6 80 10 30 4 63 9 73 11 9 3 17 0 17 -6 0 -22
101 -214 157 -299 73 -110 250 -287 368 -367 203 -138 424 -223 675 -260 119
-17 354 -12 469 11 291 57 536 193 714 395 57 65 162 219 173 253 7 22 -5 24
274 -49 113 -30 213 -54 223 -54 10 0 29 11 42 24 18 19 23 32 20 58 -13 115
-17 144 -20 148 -2 3 -6 32 -9 64 -4 33 -10 75 -14 95 -4 20 -7 44 -7 55 0 20
-2 20 150 31 50 3 113 8 140 10 28 2 91 6 140 9 50 4 108 8 130 11 22 2 81 7
130 10 50 4 100 13 112 21 51 32 47 43 -146 429 -99 200 -181 367 -181 372 0
4 140 71 311 148 171 76 323 147 339 156 33 21 44 68 21 97 -15 18 -418 302
-710 499 l-54 37 23 15 c13 9 73 42 134 74 129 68 288 152 366 194 30 16 123
65 205 108 285 149 289 152 301 182 12 29 9 49 -12 73 -7 8 -263 125 -568 260
-305 135 -555 249 -556 253 0 7 336 788 411 952 95 212 212 493 212 512 0 31
-30 63 -60 63 -18 0 -249 -49 -353 -75 -8 -2 -87 -20 -175 -41 -88 -20 -214
-49 -280 -64 -66 -15 -279 -64 -474 -109 -194 -45 -354 -81 -356 -79 -1 2 -6
35 -10 73 -3 39 -8 84 -10 100 -2 17 -7 62 -9 100 -5 66 -11 129 -21 220 -5
54 -14 138 -20 208 -9 96 -16 170 -20 212 -5 47 -8 85 -31 325 -4 46 -12 72
-27 88 -48 51 -37 60 -587 -489 l-511 -511 -767 511 c-454 302 -776 511 -790
511 -13 0 -34 -11 -47 -24z m883 -688 c515 -343 710 -468 731 -468 24 0 99 71
504 475 261 261 477 475 479 475 2 0 5 -22 7 -49 1 -28 4 -59 6 -69 2 -11 6
-55 10 -98 3 -43 8 -90 10 -104 2 -14 7 -61 10 -105 3 -44 8 -93 10 -110 2
-16 7 -61 10 -100 3 -38 8 -88 10 -110 2 -22 7 -67 10 -100 3 -33 8 -78 10
-100 3 -22 7 -78 11 -125 12 -150 17 -171 45 -192 26 -20 29 -20 100 -4 200
45 529 121 654 151 111 26 450 104 525 120 8 2 84 20 169 39 85 20 156 35 158
33 2 -3 -321 -756 -422 -982 -7 -16 -28 -64 -46 -105 -17 -41 -42 -97 -54
-125 -89 -196 -90 -212 -16 -249 25 -13 262 -119 526 -236 264 -117 483 -216
487 -219 5 -4 -81 -54 -189 -111 -108 -58 -238 -127 -287 -153 -50 -26 -155
-82 -234 -123 -295 -154 -292 -152 -292 -194 0 -34 20 -58 85 -102 161 -110
211 -144 222 -153 6 -5 113 -80 237 -165 124 -85 222 -158 218 -161 -4 -4 -43
-23 -87 -42 -260 -114 -522 -239 -532 -254 -7 -9 -13 -27 -13 -39 0 -13 78
-180 174 -371 96 -191 173 -349 173 -349 -2 -2 -39 -5 -242 -19 -33 -3 -89 -7
-125 -10 -36 -3 -94 -7 -130 -10 -36 -3 -96 -8 -135 -12 -38 -3 -79 -6 -89 -5
-27 1 -74 -25 -80 -45 -5 -17 -2 -62 9 -128 2 -16 7 -48 10 -70 3 -22 8 -51
10 -65 15 -86 16 -120 3 -120 -7 0 -56 12 -108 26 -52 14 -122 32 -156 40
l-60 15 44 132 c56 167 123 433 153 605 16 93 27 132 36 132 8 0 41 9 75 21
118 39 221 129 275 239 91 182 57 411 -81 552 -60 62 -94 86 -156 113 -25 10
-48 21 -51 24 -4 3 -10 110 -13 236 -4 127 -9 241 -10 255 -2 14 -7 74 -11
134 -4 60 -8 116 -10 125 -1 9 -6 52 -9 96 -15 166 -56 463 -76 540 -114 446
-451 819 -917 1016 -220 94 -428 136 -668 137 -535 0 -953 -245 -1190 -700
-89 -171 -162 -417 -180 -613 -4 -38 -8 -81 -10 -95 -2 -14 -7 -59 -11 -100
-4 -41 -8 -84 -9 -95 -1 -11 -5 -65 -10 -120 -4 -55 -9 -111 -10 -125 -3 -22
-7 -95 -20 -370 -2 -36 -4 -121 -4 -190 l-1 -126 -72 -34 c-255 -122 -351
-434 -211 -685 53 -94 167 -186 278 -222 59 -19 60 -20 66 -64 17 -110 22
-140 40 -229 11 -52 33 -146 50 -208 18 -62 30 -115 27 -117 -4 -4 -168 -28
-273 -40 -90 -10 -290 -35 -310 -39 -11 -2 -51 -7 -89 -11 l-69 -7 20 34 c20
33 69 122 115 208 13 25 63 117 111 206 87 160 98 194 74 226 -9 11 -151 56
-402 128 -214 61 -393 114 -397 116 -4 3 128 107 295 231 409 305 389 288 385
329 -3 30 -53 84 -422 454 -231 231 -418 421 -415 423 2 2 184 54 404 117 286
80 405 118 418 132 35 40 23 64 -140 288 -86 118 -299 412 -474 653 l-319 438
38 -6 c21 -3 49 -8 62 -10 14 -3 50 -9 80 -14 58 -10 285 -49 317 -55 10 -2
38 -7 63 -11 25 -4 54 -9 65 -11 28 -6 64 -12 105 -19 46 -7 138 -23 175 -30
362 -64 441 -76 462 -66 47 22 47 40 -3 291 -25 129 -48 244 -50 255 -2 11
-15 74 -28 140 -14 66 -27 131 -30 145 -3 19 -59 302 -101 510 -2 8 -10 50
-19 92 -19 93 -20 101 -3 92 6 -4 328 -218 715 -476z m1186 -788 c328 -64 604
-209 828 -433 209 -210 329 -455 368 -747 6 -47 13 -96 15 -110 2 -14 7 -52
10 -85 3 -33 10 -98 15 -145 5 -47 12 -119 15 -160 4 -41 8 -88 10 -105 25
-222 25 -899 -1 -1155 -16 -162 -47 -391 -70 -510 -62 -328 -178 -711 -255
-842 -16 -27 -29 -51 -29 -53 0 -13 -84 -123 -130 -171 -80 -83 -147 -137
-230 -187 -77 -45 -226 -108 -290 -123 -19 -4 -39 -9 -45 -10 -147 -37 -415
-40 -567 -6 -490 108 -852 414 -1011 858 -55 154 -123 419 -142 554 -3 25 -10
72 -15 105 -20 134 -38 340 -49 555 -8 155 -6 765 3 850 2 25 7 101 11 169 4
68 8 133 10 145 2 11 6 62 10 111 4 50 8 99 11 110 2 11 8 74 14 141 6 66 13
134 16 150 30 181 83 352 149 483 174 348 483 568 877 625 128 19 335 13 472
-14z m-1720 -2710 c3 -102 11 -245 17 -318 7 -73 9 -135 6 -138 -10 -11 -90
38 -134 82 -24 25 -57 71 -71 102 -23 48 -27 70 -27 142 1 93 25 163 79 227
23 28 116 97 121 90 1 -1 5 -85 9 -187z m3264 105 c62 -72 87 -138 87 -235 0
-76 -4 -93 -33 -152 -20 -40 -50 -82 -75 -104 -47 -40 -123 -81 -133 -71 -4 3
-1 55 5 114 6 59 13 151 17 203 3 52 7 118 9 145 2 28 4 81 4 118 l1 68 41
-23 c23 -13 57 -41 77 -63z"/>
<path d="M1812 6237 c-10 -11 -8 -32 13 -132 16 -75 32 -110 51 -113 40 -6 44
17 23 113 -11 50 -24 102 -30 118 -12 28 -39 36 -57 14z"/>
<path d="M1918 5839 c-24 -13 -23 -30 8 -162 14 -62 27 -120 29 -130 2 -10 6
-26 9 -35 3 -9 7 -28 10 -42 5 -25 10 -48 22 -102 3 -15 6 -31 6 -35 1 -38 59
-60 72 -27 4 9 0 44 -8 78 -20 85 -50 213 -76 329 -25 109 -44 143 -72 126z"/>
<path d="M880 5102 c-35 -12 -31 -38 14 -93 12 -14 32 -40 46 -59 30 -40 77
-101 88 -115 4 -5 21 -28 37 -50 17 -22 35 -45 40 -51 6 -7 36 -46 68 -88 60
-79 87 -93 106 -57 9 16 -18 56 -177 265 -103 134 -191 247 -197 249 -5 2 -17
2 -25 -1z"/>
<path d="M1363 4438 c-15 -18 -8 -30 76 -141 55 -73 79 -97 96 -97 20 0 35 17
35 39 0 4 -11 20 -24 37 -13 16 -48 61 -78 99 -53 70 -85 88 -105 63z"/>
<path d="M3675 4954 c-52 -14 -84 -21 -147 -31 -45 -7 -62 -24 -53 -54 7 -20
12 -21 64 -15 87 10 223 49 234 68 8 12 7 21 -2 32 -16 19 -29 19 -96 0z"/>
<path d="M2673 4893 c-17 -6 -16 -38 0 -52 22 -18 145 -26 390 -25 192 1 230
3 244 16 9 10 13 24 9 36 -7 19 -14 20 -229 19 -122 -1 -262 1 -312 5 -49 3
-96 4 -102 1z"/>
<path d="M3898 4555 c-2 -2 -47 -6 -100 -10 -54 -3 -105 -8 -115 -9 -10 -2
-54 -7 -98 -10 -44 -4 -91 -9 -105 -11 -14 -2 -59 -7 -100 -11 -41 -3 -88 -8
-105 -9 -224 -23 -622 -23 -800 0 -16 2 -57 7 -90 11 -79 10 -119 8 -153 -10
-99 -52 -127 -181 -56 -266 44 -51 72 -62 200 -75 38 -4 78 -9 89 -11 110 -22
723 -21 830 1 11 2 57 7 101 10 45 3 93 8 105 10 13 2 60 6 103 10 43 4 88 8
98 10 129 25 456 24 558 -3 112 -28 175 -10 226 67 44 67 32 162 -28 218 -57
54 -197 84 -405 88 -84 1 -153 1 -155 0z m377 -90 c97 -21 130 -37 155 -77 32
-53 3 -123 -60 -144 -26 -9 -47 -7 -104 8 -52 15 -107 20 -211 21 -127 1 -312
-8 -364 -18 -11 -2 -55 -7 -98 -10 -43 -4 -85 -8 -94 -10 -8 -2 -55 -6 -105
-10 -49 -4 -100 -9 -114 -11 -175 -21 -707 -21 -820 1 -10 2 -50 7 -87 10 -37
4 -82 13 -100 20 -85 35 -86 154 -2 189 23 10 49 10 127 0 243 -32 631 -36
882 -9 19 2 71 6 115 10 44 3 91 8 105 10 14 2 54 6 90 10 36 4 76 8 90 10 14
2 68 7 120 10 52 4 96 8 98 9 10 11 310 -5 377 -19z"/>
<path d="M2334 3964 c-96 -72 -164 -167 -205 -284 -33 -95 -33 -315 0 -403 33
-85 89 -178 135 -222 110 -105 249 -165 394 -169 272 -9 498 160 579 433 19
66 21 236 2 315 -22 98 -78 196 -156 274 -76 75 -107 89 -122 50 -6 -18 4 -32
64 -92 54 -53 82 -91 109 -147 49 -104 48 -112 -11 -103 -27 3 -57 9 -68 11
-40 10 -482 11 -555 2 -77 -10 -281 -46 -314 -56 -10 -3 -16 -1 -13 4 4 5 9
25 12 44 17 95 104 222 210 306 34 26 38 34 29 50 -18 29 -38 26 -90 -13z
m685 -409 c9 -1 43 -6 77 -10 33 -3 66 -10 73 -15 34 -20 11 -190 -40 -298
-37 -76 -130 -174 -204 -214 -180 -96 -395 -81 -551 39 -57 42 -59 45 -100 98
-65 83 -108 211 -102 299 l3 41 133 27 c73 14 166 29 207 33 l75 7 0 -31 c0
-45 45 -91 96 -98 57 -7 103 32 111 96 l6 43 100 -7 c54 -3 107 -8 116 -10z"/>
<path d="M3653 3956 c-85 -65 -146 -150 -193 -271 -20 -51 -23 -79 -24 -195
-1 -117 2 -145 23 -208 114 -348 531 -505 842 -316 124 75 207 179 255 319 23
70 27 95 26 195 -2 192 -46 304 -169 428 -74 74 -104 87 -122 53 -9 -16 1 -30
62 -92 71 -72 126 -161 143 -232 6 -28 6 -28 -32 -23 -22 3 -68 10 -104 15
-66 10 -504 8 -550 -2 -14 -3 -46 -8 -71 -11 -65 -9 -95 -15 -167 -32 -35 -7
-65 -14 -67 -14 -10 0 21 94 50 155 36 73 91 140 163 194 43 34 54 64 26 75
-25 10 -29 8 -91 -38z m702 -401 c17 -2 53 -7 81 -11 74 -9 77 -13 77 -86 -2
-271 -212 -488 -486 -502 -277 -15 -528 220 -523 489 l1 50 80 17 c81 18 281
48 314 48 14 0 20 -10 25 -39 9 -58 56 -95 111 -88 53 8 95 53 95 103 l0 36
98 -7 c53 -4 111 -8 127 -10z"/>
<path d="M3090 2855 c-9 -10 -11 -82 -8 -282 5 -289 7 -304 65 -381 71 -94
215 -94 286 0 58 77 60 92 65 381 4 279 2 297 -38 297 -10 0 -21 -7 -24 -16
-3 -9 -6 -122 -6 -253 0 -274 -9 -324 -67 -378 -69 -66 -153 -34 -192 73 -19
50 -21 77 -21 302 0 249 -3 272 -36 272 -6 0 -17 -7 -24 -15z"/>
<path d="M2201 2806 c-17 -20 -4 -43 43 -75 145 -100 317 -135 489 -100 122
24 163 55 122 89 -12 10 -25 10 -68 -4 -79 -25 -96 -27 -177 -28 -119 0 -247
41 -337 108 -36 27 -56 30 -72 10z"/>
<path d="M4307 2781 c-133 -89 -323 -118 -468 -72 -69 22 -93 20 -103 -6 -9
-24 11 -41 67 -57 166 -48 312 -37 465 34 114 53 173 116 126 134 -23 9 -24 9
-87 -33z"/>
<path d="M3187 1625 c-1 -2 -40 -6 -87 -10 -47 -4 -92 -8 -100 -9 -45 -7 -126
-20 -130 -21 -3 -1 -18 -4 -35 -8 -16 -4 -39 -9 -50 -11 -102 -20 -300 -86
-322 -109 -17 -17 -12 -44 11 -53 8 -3 43 6 78 19 35 14 115 39 178 56 340 90
679 99 1010 29 52 -11 155 -40 228 -64 106 -36 136 -43 148 -33 40 33 9 55
-151 108 -147 49 -282 78 -455 97 -52 6 -317 13 -323 9z"/>
</g>
</svg>
